# xmcd CD database file
#
# Track frame offsets:
#	150
#	24119
#	41347
#	80542
#	99945
#	140556
#	174481
#	186829
#	204658
#	236465
#
# Disc length: 3492 seconds
#
# Revision: 0
# Processed by: cddbd v1.5.2PL0 Copyright (c) Steve Scherf et al.
# Submitted via: CDex 1.51
#
DISCID=760da20a
DTITLE=Various Artist - Living On Impulse By Tom Barman [CD2) Have A Drink !
DYEAR=2012
DGENRE=Jazz
TTITLE0=Pharoah Sanders - Love Is Everywhere
TTITLE1=Archie Sheep - Blues For Brother George Jackson
TTITLE2=Keith Jarrett - Great Bird
TTITLE3=Yusef Lateef - Ringo Oiwake
TTITLE4=Sam Rivers - Tranquility
TTITLE5=Max Roach - Living Room
TTITLE6=Mal Waldron - Keel
TTITLE7=Oliver Nelson - The Rights Of All
TTITLE8=Max Roach - Lonesome Lover
TTITLE9=Sun Ra Arkestra - Search Light Blues
EXTD=YEAR: 2012
EXTT0=
EXTT1=
EXTT2=
EXTT3=
EXTT4=
EXTT5=
EXTT6=
EXTT7=
EXTT8=
EXTT9=
PLAYORDER=
